<?xml version="1.0" standalone="no"?>
<!DOCTYPE svg PUBLIC "-//W3C//DTD SVG 20010904//EN"
 "http://www.w3.org/TR/2001/REC-SVG-20010904/DTD/svg10.dtd">
<svg version="1.0" xmlns="http://www.w3.org/2000/svg"
 width="1000.000000pt" height="1000.000000pt" viewBox="0 0 1000.000000 1000.000000"
 preserveAspectRatio="xMidYMid meet">
<metadata>
Created by potrace 1.11, written by Peter Selinger 2001-2013
</metadata>
<g transform="translate(0.000000,1000.000000) scale(0.100000,-0.100000)"
fill="#000000" stroke="none">
<path d="M1155 8804 c-105 -21 -137 -30 -181 -49 -115 -51 -168 -128 -168
-243 1 -64 5 -81 42 -155 23 -45 58 -103 79 -129 21 -26 788 -785 1706 -1688
l1667 -1641 0 -1949 0 -1950 -872 -2 -873 -3 -50 -23 c-63 -29 -129 -92 -163
-157 -23 -43 -27 -62 -27 -140 0 -78 4 -97 27 -140 34 -66 111 -137 173 -161
49 -19 108 -19 2450 -19 l2400 0 46 23 c75 37 125 87 161 159 27 56 32 77 32
138 0 126 -71 236 -193 297 l-46 23 -872 3 -873 2 0 1953 0 1952 1551 1525
c1873 1841 1830 1798 1888 1909 95 183 59 326 -101 405 -144 71 177 66 -4006
65 -2078 -1 -3786 -3 -3797 -5z"/>
</g>
</svg>
