<?xml version="1.0" standalone="no"?>
<!DOCTYPE svg PUBLIC "-//W3C//DTD SVG 20010904//EN"
 "http://www.w3.org/TR/2001/REC-SVG-20010904/DTD/svg10.dtd">
<svg version="1.0" xmlns="http://www.w3.org/2000/svg"
 width="1000.000000pt" height="1000.000000pt" viewBox="0 0 1000.000000 1000.000000"
 preserveAspectRatio="xMidYMid meet">
<metadata>
Created by potrace 1.11, written by Peter Selinger 2001-2013
</metadata>
<g transform="translate(0.000000,1000.000000) scale(0.100000,-0.100000)"
fill="#000000" stroke="none">
<path d="M4870 9706 c-342 -62 -613 -225 -810 -487 -237 -317 -274 -744 -95
-1104 67 -135 129 -219 244 -327 606 -568 1653 -391 2003 339 314 653 -92
1400 -852 1568 -102 23 -389 29 -490 11z"/>
<path d="M985 7729 c-244 -37 -443 -207 -500 -424 -57 -220 39 -463 235 -594
88 -58 146 -77 450 -142 1033 -223 1842 -367 2480 -441 l203 -23 -7 -300 c-33
-1494 -148 -2516 -372 -3326 -93 -339 -260 -791 -431 -1169 -103 -227 -115
-266 -116 -375 0 -156 56 -279 183 -398 119 -113 259 -167 431 -167 210 0 398
87 510 235 67 89 350 758 483 1145 141 405 273 941 337 1368 l12 82 202 0 202
0 12 -82 c64 -427 196 -963 337 -1368 133 -387 416 -1056 483 -1145 112 -148
300 -235 510 -235 172 0 312 54 431 167 127 119 183 242 183 398 -1 109 -13
148 -116 375 -171 378 -338 830 -431 1169 -224 810 -339 1832 -372 3326 l-7
300 203 23 c638 74 1447 218 2480 441 304 65 362 84 449 142 240 160 320 462
189 713 -69 132 -228 252 -388 293 -134 34 -214 25 -655 -70 -1617 -348 -2533
-470 -3510 -470 -214 0 -471 5 -570 12 -853 56 -1664 183 -2983 467 -359 77
-448 89 -547 73z"/>
</g>
</svg>
