
<svg version="1.1" 
id="Layer_1" 
xmlns="http://www.w3.org/2000/svg" >
	<symbol id="gears" viewBox="0 0 100 100">
	<path d="M62.5,54.5c0,0.5-0.4,1.2-0.9,1.2l-6,1c-0.3,1.1-0.7,2.1-1.2,3.1c1.1,1.7,2.2,3.2,3.5,4.8c0.2,0.2,0.3,0.5,0.3,0.8
		c0,0.3-0.1,0.6-0.3,0.8c-0.8,1.1-5.1,6.2-6.2,6.2c-0.3,0-0.6-0.1-0.8-0.3l-4.5-3.7c-1,0.5-1.9,1-3,1.3c-0.2,2.1-0.4,4.4-0.9,6.4
		c-0.2,0.6-0.6,1-1.2,1h-7.2c-0.5,0-1.1-0.5-1.2-1l-0.9-6.3c-1-0.3-2-0.8-2.9-1.3l-4.6,3.7c-0.2,0.2-0.5,0.3-0.8,0.3
		c-0.3,0-0.6-0.1-0.8-0.3c-1-1-5.6-5.4-5.6-6.6c0-0.3,0.1-0.5,0.3-0.8c1.1-1.6,2.3-3.1,3.4-4.7c-0.5-1.1-1-2.2-1.4-3.4l-5.9-1
		c-0.5-0.1-0.9-0.6-0.9-1.2v-7.7c0-0.5,0.4-1.2,0.9-1.2l6-1c0.3-1.1,0.7-2.1,1.2-3.1c-1.1-1.7-2.2-3.2-3.5-4.8
		c-0.2-0.2-0.3-0.5-0.3-0.8s0.1-0.6,0.3-0.8c0.8-1.1,5.1-6.1,6.2-6.1c0.3,0,0.6,0.1,0.8,0.3l4.5,3.7c1-0.5,1.9-1,3-1.3
		c0.2-2.1,0.4-4.3,0.9-6.4c0.2-0.6,0.6-1,1.2-1h7.2c0.5,0,1.1,0.5,1.2,1l0.9,6.3c1,0.3,2,0.8,2.9,1.3l4.6-3.7
		c0.2-0.2,0.5-0.3,0.8-0.3c0.3,0,0.6,0.1,0.8,0.3c1,1,5.6,5.5,5.6,6.6c0,0.3-0.1,0.5-0.3,0.8c-1.1,1.6-2.3,3.1-3.4,4.7
		c0.5,1.1,1,2.2,1.3,3.4l5.9,1c0.5,0.1,0.9,0.7,0.9,1.2V54.5z M37.7,40c-5.5,0-9.9,4.8-9.9,10.6c0,5.8,4.5,10.6,9.9,10.6
		s9.9-4.8,9.9-10.6C47.6,44.8,43.2,40,37.7,40z M87.3,32.3c0,0.6-5,1.2-5.8,1.3c-0.3,0.8-0.7,1.5-1.2,2.2c0.3,0.8,2,5,2,5.7
		c0,0.1,0,0.2-0.2,0.3c-0.5,0.3-4.6,2.9-4.8,2.9c-0.5,0-3.4-4.1-3.8-4.8c-0.4,0-0.8,0.1-1.2,0.1c-0.4,0-0.8,0-1.2-0.1
		c-0.4,0.6-3.3,4.8-3.8,4.8c-0.2,0-4.3-2.6-4.8-2.9c-0.1-0.1-0.2-0.2-0.2-0.3c0-0.7,1.6-4.9,2-5.7c-0.5-0.7-0.9-1.4-1.2-2.2
		c-0.8-0.1-5.8-0.7-5.8-1.3v-5.8c0-0.6,5-1.2,5.8-1.3c0.3-0.7,0.7-1.5,1.2-2.2c-0.3-0.8-2-5-2-5.7c0-0.1,0-0.2,0.2-0.3
		c0.5-0.2,4.6-2.9,4.8-2.9c0.5,0,3.4,4.1,3.8,4.7c0.4,0,0.8-0.1,1.2-0.1c0.4,0,0.8,0,1.2,0.1c1.1-1.6,2.2-3.2,3.6-4.6l0.2-0.1
		c0.2,0,4.3,2.6,4.8,2.9c0.1,0.1,0.2,0.2,0.2,0.3c0,0.7-1.6,4.9-2,5.7c0.5,0.7,0.9,1.4,1.2,2.2c0.8,0.1,5.8,0.7,5.8,1.3V32.3z
		 M87.3,74.7c0,0.6-5,1.2-5.8,1.3c-0.3,0.8-0.7,1.5-1.2,2.2c0.3,0.8,2,5,2,5.7c0,0.1,0,0.2-0.2,0.3c-0.5,0.3-4.6,2.9-4.8,2.9
		c-0.5,0-3.4-4.1-3.8-4.8c-0.4,0-0.8,0.1-1.2,0.1c-0.4,0-0.8,0-1.2-0.1C70.9,82.9,68,87,67.5,87c-0.2,0-4.3-2.6-4.8-2.9
		c-0.1-0.1-0.2-0.2-0.2-0.3c0-0.7,1.6-4.9,2-5.7c-0.5-0.7-0.9-1.4-1.2-2.2c-0.8-0.1-5.8-0.7-5.8-1.3v-5.8c0-0.6,5-1.2,5.8-1.3
		c0.3-0.7,0.7-1.5,1.2-2.2c-0.3-0.8-2-5-2-5.7c0-0.1,0-0.2,0.2-0.3c0.5-0.2,4.6-2.9,4.8-2.9c0.5,0,3.4,4.1,3.8,4.7
		c0.4,0,0.8-0.1,1.2-0.1c0.4,0,0.8,0,1.2,0.1c1.1-1.6,2.2-3.2,3.6-4.6l0.2-0.1c0.2,0,4.3,2.6,4.8,2.9c0.1,0.1,0.2,0.2,0.2,0.3
		c0,0.7-1.6,4.9-2,5.7c0.5,0.7,0.9,1.4,1.2,2.2c0.8,0.1,5.8,0.7,5.8,1.3V74.7z M72.4,24.1c-2.7,0-5,2.4-5,5.3c0,2.9,2.2,5.3,5,5.3
		c2.8,0,5-2.4,5-5.3S75.1,24.1,72.4,24.1z M72.4,66.5c-2.7,0-5,2.4-5,5.3c0,2.9,2.2,5.3,5,5.3c2.8,0,5-2.4,5-5.3
		S75.1,66.5,72.4,66.5z"/>

		</symbol>

</svg>
