
<svg version="1.1"
 id="Layer_1"
xmlns="http://www.w3.org/2000/svg">
 <symbol id="pencil" viewBox="0 0 100 100">

	<path d="M74.2,48.2L32.6,81.3H11.9V64.7l41.5-33.1L74.2,48.2z M34.5,72.6l-11.7-9.3l-4.5,3.6v4.3h6.4v5.1H30L34.5,72.6z M55,38.4
		c-0.3,0-0.6,0.1-0.8,0.3L27.1,60.2c-0.2,0.2-0.3,0.4-0.3,0.7c0,0.5,0.4,0.9,1.1,0.9c0.3,0,0.6-0.1,0.8-0.3L55.7,40
		c0.3-0.2,0.3-0.4,0.3-0.7C56.1,38.8,55.6,38.4,55,38.4z M85.6,39l-8.3,6.6L56.6,29.1l8.3-6.6c1.1-1,2.8-1.5,4.5-1.5
		s3.3,0.6,4.5,1.5l11.7,9.3c1.1,1,1.8,2.3,1.8,3.6S86.8,38.1,85.6,39z"/>
</symbol>
</svg>
