
<svg version="1.1" id="Layer_1" xmlns="http://www.w3.org/2000/svg" xmlns:xlink="http://www.w3.org/1999/xlink">
	  <symbol id="ig" viewBox="0 0 100 100">

	<path d="M86.3,63.8c-0.3,5-1.6,9.5-5.9,13.2c-4.3,3.7-9.5,4.8-15.3,5.1c-5,0.2-10,0.2-15.1,0.2c-5,0-10,0-15.1-0.2
		c-5.9-0.2-11-1.4-15.3-5.1c-4.3-3.7-5.6-8.2-5.9-13.2c-0.3-4.3-0.2-8.7-0.2-13c0-4.3,0-8.7,0.2-13c0.3-5,1.6-9.5,5.9-13.2
		c4.3-3.7,9.5-4.8,15.3-5.1c5-0.2,10-0.2,15.1-0.2c5,0,10,0,15.1,0.2c5.9,0.2,11,1.4,15.3,5.1c4.3,3.7,5.6,8.2,5.9,13.2
		c0.3,4.3,0.2,8.7,0.2,13C86.5,55.1,86.5,59.4,86.3,63.8z M28.4,26.2c-1.7,0.6-2.9,1.3-4.2,2.4s-2.1,2.2-2.8,3.6
		c-1.9,4.1-1.5,14-1.5,18.6s-0.4,14.4,1.5,18.6c0.7,1.4,1.5,2.5,2.8,3.6c1.3,1.1,2.5,1.8,4.2,2.4c4.8,1.6,16.2,1.3,21.6,1.3
		s16.7,0.4,21.6-1.3c1.7-0.6,2.9-1.3,4.2-2.4c1.3-1.1,2.1-2.2,2.8-3.6c1.9-4.1,1.5-14,1.5-18.6s0.4-14.4-1.5-18.6
		c-0.7-1.4-1.5-2.5-2.8-3.6c-1.3-1.1-2.5-1.8-4.2-2.4c-4.8-1.6-16.2-1.3-21.6-1.3S33.2,24.6,28.4,26.2z M50,66.9
		c-10.4,0-18.7-7.2-18.7-16.2c0-8.9,8.4-16.2,18.7-16.2s18.7,7.2,18.7,16.2C68.7,59.7,60.3,66.9,50,66.9z M50,40.3
		c-6.7,0-12.2,4.7-12.2,10.5S43.2,61.3,50,61.3s12.2-4.7,12.2-10.5S56.7,40.3,50,40.3z M69.5,37.7c-2.4,0-4.4-1.7-4.4-3.8
		c0-2.1,2-3.8,4.4-3.8c2.4,0,4.4,1.7,4.4,3.8C73.8,36,71.9,37.7,69.5,37.7z"/>

</svg>
