
<svg version="1.1" id="Layer_1" xmlns="http://www.w3.org/2000/svg">
	<symbol id="logo" viewBox="0 0 100 100">
	<path d="M46.7,42.9c0,3.3-2.7,6.3-6.6,7.5v32.1c0,2.9-3,5.3-6.6,5.3h-6.6c-3.6,0-6.6-2.4-6.6-5.3V50.3c-3.9-1.1-6.6-4.1-6.6-7.5
		V16.5c0-1.4,1.5-2.6,3.3-2.6s3.3,1.2,3.3,2.6v17.1c0,1.4,1.5,2.6,3.3,2.6s3.3-1.2,3.3-2.6V16.5c0-1.4,1.5-2.6,3.3-2.6
		s3.3,1.2,3.3,2.6v17.1c0,1.4,1.5,2.6,3.3,2.6s3.3-1.2,3.3-2.6V16.5c0-1.4,1.5-2.6,3.3-2.6s3.3,1.2,3.3,2.6V42.9z M86.2,82.4
		c0,2.9-3,5.3-6.6,5.3H73c-3.6,0-6.6-2.4-6.6-5.3V61.3H54.9c-0.9,0-1.6-0.6-1.6-1.3V27c0-7.2,7.4-13.2,16.5-13.2h13.2
		c1.8,0,3.3,1.2,3.3,2.6V82.4z"/>

</svg>
