
<svg version="1.1" id="Layer_1" xmlns="http://www.w3.org/2000/svg">
	<symbol id="phone" viewBox="0 0 100 100">

	<path class="st0" d="M87.7,70.7c0,6.6-6.3,11.9-14.1,11.9H26.5c-7.8,0-14.1-5.3-14.1-11.9V30.9c0-6.6,6.3-11.9,14.1-11.9h47.1
		c7.8,0,14.1,5.3,14.1,11.9V70.7z M75.1,62.5c-0.3-0.7-7.5-3.8-8.8-4.5c-0.9-0.5-2.1-1.4-3.2-1.4c-2.2,0-5.3,5.4-7.3,5.4
		c-1,0-2.2-0.7-3.1-1.2c-6.5-3.1-10.9-6.8-14.6-12.3c-0.5-0.7-1.4-1.8-1.4-2.6c0-1.6,6.4-4.3,6.4-6.1c0-1-1.1-1.9-1.6-2.7
		c-0.8-1.2-4.4-7.2-5.3-7.5c-0.2-0.1-0.5-0.1-0.8-0.1c-1.3,0-3.8,0.5-5,0.9c-3.2,1.2-5.6,6.5-5.6,9.3c0,2.8,1.3,5.3,2.5,7.9
		C31.3,56.8,43,66.7,53.7,70c3,1,6,2.1,9.3,2.1c3.4,0,9.6-2,11-4.7c0.5-1,1.1-3.1,1.1-4.2C75.2,62.9,75.2,62.7,75.1,62.5z"/>

</svg>
