
<svg version="1.1" id="Layer_1" xmlns="http://www.w3.org/2000/svg">
	 <symbol id="calendar" viewBox="0 0 100 100">

	<path d="M87.1,82.8c0,2.9-2.6,5.2-5.7,5.2H18.4c-3.1,0-5.7-2.4-5.7-5.2V30.5c0-2.9,2.6-5.2,5.7-5.2h5.7v-3.9c0-3.6,3.2-6.5,7.2-6.5
		h2.9c3.9,0,7.2,2.9,7.2,6.5v3.9h17.2v-3.9c0-3.6,3.2-6.5,7.2-6.5h2.9c3.9,0,7.2,2.9,7.2,6.5v3.9h5.7c3.1,0,5.7,2.4,5.7,5.2V82.8z
		 M31.3,52.7V40.9H18.4v11.8H31.3z M31.3,68.4V55.3H18.4v13.1H31.3z M31.3,82.8V71H18.4v11.8H31.3z M35.6,21.3
		c0-0.7-0.7-1.3-1.4-1.3h-2.9c-0.8,0-1.4,0.6-1.4,1.3v11.8c0,0.7,0.7,1.3,1.4,1.3h2.9c0.8,0,1.4-0.6,1.4-1.3V21.3z M48.4,52.7V40.9
		H34.1v11.8H48.4z M48.4,68.4V55.3H34.1v13.1H48.4z M48.4,82.8V71H34.1v11.8H48.4z M65.6,52.7V40.9H51.3v11.8H65.6z M65.6,68.4V55.3
		H51.3v13.1H65.6z M65.6,82.8V71H51.3v11.8H65.6z M69.9,21.3c0-0.7-0.7-1.3-1.4-1.3h-2.9c-0.8,0-1.4,0.6-1.4,1.3v11.8
		c0,0.7,0.7,1.3,1.4,1.3h2.9c0.8,0,1.4-0.6,1.4-1.3V21.3z M81.3,52.7V40.9H68.5v11.8H81.3z M81.3,68.4V55.3H68.5v13.1H81.3z
		 M81.3,82.8V71H68.5v11.8H81.3z"/>
</symbol>
</svg>
