
<svg version="1.1" id="Layer_1" xmlns="http://www.w3.org/2000/svg"> 
	 <symbol id="envelope" viewBox="0 0 100 100" >

	<path d="M67.3,43c-5.2,4.4-10.5,8.8-15.7,13.2c-2.2,1.8-5.9,5.6-8.6,5.6h0h0c-2.7,0-6.4-3.7-8.6-5.6c-5.2-4.4-10.5-8.8-15.7-13.2
		c-2.4-2-5.8-6.5-5.8-10.2c0-4,1.8-7.4,5.4-7.4h49.4c2.9,0,5.4,2.9,5.4,6.5C73,36.4,70.2,40.5,67.3,43z M73,76.1
		c0,3.6-2.4,6.5-5.4,6.5H18.2c-3,0-5.4-2.9-5.4-6.5V43.8c1,1.3,2.1,2.5,3.4,3.5c5.6,4.6,11.2,9.2,16.7,14c2.8,2.5,6.3,5.6,10,5.6h0
		h0c3.7,0,7.2-3.1,10-5.6c5.5-4.8,11.1-9.4,16.7-14c1.2-1,2.3-2.2,3.4-3.5V76.1z"/>


</symbol>
</svg>
