
<svg version="1.1" id="Layer_1" xmlns="http://www.w3.org/2000/svg">
	  <symbol id="tachometer" viewBox="0 0 100 100">

	<path d="M81.4,80.9c-0.5,0.7-1.3,1.2-2.2,1.2H20.9c-0.9,0-1.7-0.4-2.2-1.2c-3.8-5.9-5.9-12.7-5.9-19.7C12.8,41,29.5,24.6,50,24.6
		c20.5,0,37.2,16.4,37.2,36.6C87.2,68.2,85.2,75,81.4,80.9z M23.5,56c-2.9,0-5.3,2.3-5.3,5.2s2.4,5.2,5.3,5.2s5.3-2.3,5.3-5.2
		S26.4,56,23.5,56z M31.4,37.7c-2.9,0-5.3,2.3-5.3,5.2s2.4,5.2,5.3,5.2s5.3-2.3,5.3-5.2S34.4,37.7,31.4,37.7z M58.7,47
		c0.3-1.4-0.5-2.8-1.9-3.2c-1.4-0.4-2.9,0.5-3.2,1.9l-4.2,15.6c-3.3,0.2-6.1,2.5-7.1,5.8c-1.1,4.2,1.5,8.5,5.7,9.6
		c4.3,1.1,8.6-1.4,9.8-5.6c0.9-3.3-0.5-6.7-3.2-8.5L58.7,47z M50,29.8c-2.9,0-5.3,2.3-5.3,5.2s2.4,5.2,5.3,5.2
		c2.9,0,5.3-2.3,5.3-5.2S53,29.8,50,29.8z M68.6,37.7c-2.9,0-5.3,2.3-5.3,5.2s2.4,5.2,5.3,5.2s5.3-2.3,5.3-5.2S71.6,37.7,68.6,37.7z
		 M76.6,56c-2.9,0-5.3,2.3-5.3,5.2s2.4,5.2,5.3,5.2s5.3-2.3,5.3-5.2S79.6,56,76.6,56z"/>

</symbol>
</svg>
