
<svg version="1.1"
 id="Layer_1" 
 xmlns="http://www.w3.org/2000/svg">
	<symbol id="briefcase" viewBox="0 0 100 100">

	<path d="M87.9,47.8l-74,0.1l0-15.3c0-3.5,3-6.4,6.6-6.4l14.5,0l0-6.4c0-2.1,1.8-3.8,4-3.8l23.8,0c2.2,0,4,1.7,4,3.8l0,6.4l14.5,0
		c3.6,0,6.6,2.9,6.6,6.4L87.9,47.8z M88,70.7c0,3.5-3,6.4-6.6,6.4l-60.8,0.1c-3.6,0-6.6-2.9-6.6-6.4l0-19.1l27.7,0l0,6.4
		c0,1.4,1.2,2.5,2.6,2.5l13.2,0c1.4,0,2.6-1.2,2.6-2.6l0-6.4l27.7,0L88,70.7z M61.5,26.1l0-5.1l-21.1,0l0,5.1L61.5,26.1z M56.2,56.7
		l-10.6,0l0-5.1l10.6,0L56.2,56.7z"/>
</symbol>
</svg>
