
<svg version="1.1" 
id="Layer_1"
xmlns="http://www.w3.org/2000/svg" >
<symbol id="gear" viewBox="0 0 100 100">

	<path d="M86.7,55.2c0,0.6-0.6,1.3-1.3,1.5l-8.9,1.1c-0.5,1.3-1.1,2.5-1.9,3.7c1.6,2,3.4,3.8,5.1,5.6c0.3,0.3,0.5,0.6,0.5,1
		s-0.1,0.6-0.4,0.9c-1.2,1.3-7.6,7.2-9.3,7.2c-0.4,0-0.9-0.2-1.3-0.4l-6.6-4.4c-1.4,0.6-2.9,1.1-4.4,1.5c-0.3,2.5-0.6,5.1-1.4,7.5
		c-0.2,0.6-0.9,1.1-1.7,1.1H44.5c-0.9,0-1.6-0.5-1.7-1.2L41.4,73c-1.5-0.4-2.9-0.9-4.3-1.5l-6.8,4.3c-0.3,0.2-0.8,0.4-1.2,0.4
		s-0.9-0.2-1.2-0.4c-2.5-1.9-5.9-4.4-7.9-6.8c-0.2-0.3-0.3-0.6-0.3-0.9c0-0.4,0.1-0.6,0.4-0.9c1.6-1.9,3.4-3.6,5.1-5.5
		c-0.8-1.3-1.5-2.6-2-4l-8.8-1.1c-0.8-0.1-1.4-0.8-1.4-1.5v-9c0-0.6,0.6-1.3,1.3-1.5l8.9-1.1c0.5-1.3,1.1-2.5,1.9-3.7
		c-1.6-1.9-3.4-3.8-5.1-5.6c-0.3-0.3-0.5-0.6-0.5-1c0-0.4,0.2-0.6,0.4-0.9c1.2-1.3,7.6-7.2,9.3-7.2c0.4,0,0.9,0.2,1.3,0.4l6.6,4.3
		c1.4-0.6,2.9-1.1,4.4-1.5c0.3-2.5,0.6-5.1,1.4-7.5c0.2-0.6,0.9-1.1,1.7-1.1h10.7c0.9,0,1.6,0.5,1.7,1.2l1.3,7.4
		c1.5,0.4,2.9,0.9,4.3,1.5l6.8-4.3c0.3-0.2,0.7-0.4,1.2-0.4s0.9,0.2,1.2,0.4c2.5,2,5.9,4.5,7.9,6.9c0.2,0.2,0.3,0.6,0.3,0.9
		c0,0.4-0.1,0.6-0.4,0.9c-1.6,1.9-3.4,3.6-5.1,5.5c0.8,1.3,1.5,2.6,2,4l8.8,1.1c0.8,0.1,1.4,0.8,1.4,1.5V55.2z M49.8,40.3
		c-6.8,0-12.3,4.6-12.3,10.3C37.5,56.4,43,61,49.8,61s12.3-4.6,12.3-10.3C62.1,45,56.6,40.3,49.8,40.3z"/>
</symbol>
</svg>
