
<svg version="1.1" 
id="Layer_1" 
xmlns="http://www.w3.org/2000/svg">
<symbol id="home" viewBox="0 0 100 100">

	<path d="M82.8,56c-0.2,0.2-0.6,0.4-0.9,0.4c0,0-0.1,0-0.1,0c-0.4,0-0.7-0.1-0.9-0.3L50,32.9L19.2,56.2c-0.3,0.2-0.7,0.3-1.1,0.3
		c-0.4,0-0.7-0.2-0.9-0.4l-2.8-3c-0.5-0.5-0.4-1.4,0.2-1.8l32-24.2c1.9-1.4,4.9-1.4,6.8,0l10.9,8.2v-7.9c0-0.7,0.6-1.3,1.4-1.3h8.5
		c0.8,0,1.4,0.6,1.4,1.3v16.5l9.7,7.4c0.6,0.4,0.7,1.3,0.2,1.8L82.8,56z M75.7,75.2c0,1.4-1.3,2.6-2.8,2.6H55.7V62.3H44.3v15.5H27.2
		c-1.6,0-2.8-1.2-2.8-2.6V55.8c0-0.1,0-0.2,0-0.2L50,36.5l25.6,19.1c0,0.1,0,0.2,0,0.2V75.2z"/>

</symbol>
</svg>
