

<svg version="1.1" 
id="Layer_1" 
xmlns="http://www.w3.org/2000/svg" >
 <symbol id="camera" viewBox="0 0 100 100">

	<path d="M87.3,80.6c0,3.4-2.4,6.1-5.3,6.1h-64c-3,0-5.3-2.7-5.3-6.1V19.3c0-3.4,2.4-6.1,5.3-6.1h64c3,0,5.3,2.7,5.3,6.1V80.6z
		 M82,31.5v-5.7v-6.6H47.4l-2.7,6.1H17.9v6.1H82z M82,80.6v-6.1h-64v6.1H82z M39.3,22.3v-6.1h-16v6.1H39.3z M50,34.7
		c-8.8,0-16,8.2-16,18.4c0,10.2,7.2,18.4,16,18.4s16-8.2,16-18.4C66,42.9,58.8,34.7,50,34.7z M50,65.4c-5.9,0-10.7-5.5-10.7-12.3
		c0-6.8,4.8-12.3,10.7-12.3s10.7,5.5,10.7,12.3C60.6,59.9,55.8,65.4,50,65.4z M50,45.3c-3.7,0-6.7,3.4-6.7,7.7
		c0,0.9,0.6,1.5,1.3,1.5c0.7,0,1.3-0.7,1.3-1.5c0-2.5,1.8-4.6,4-4.6c0.7,0,1.3-0.7,1.3-1.5S50.7,45.3,50,45.3z"/>
</symbol>
</svg>
